<svg xmlns="http://www.w3.org/2000/svg" xmlns:xlink="http://www.w3.org/1999/xlink" xmlns:lucid="lucid" width="1660" height="1360"><g transform="translate(-20 160)" lucid:page-tab-id="0_0"><path d="M700 240h144v102c-24.05-17.03-39.02-17.03-48.1-17.03-14.4 0-33.55 17.03-47.95 17.03-8.93 0-24.05 0-47.95-17.03z" stroke="#000" stroke-width="2" fill="#19967d"/><path d="M708 249h144v102c-24.05-17.03-39.02-17.03-48.1-17.03-14.4 0-33.55 17.03-47.95 17.03-8.93 0-24.05 0-47.95-17.03z" stroke="#000" stroke-width="2" fill="#19967d"/><path d="M716 258h144v102c-24.05-17.03-39.02-17.03-48.1-17.03-14.4 0-33.55 17.03-47.95 17.03-8.93 0-24.05 0-47.95-17.03z" stroke="#000" stroke-width="2" fill="#19967d"/><use xlink:href="#a" transform="matrix(1,0,0,1,721,263) translate(32.05 30.80625)"/><use xlink:href="#b" transform="matrix(1,0,0,1,721,263) translate(28.049999999999997 52.40625)"/><path d="M360 240h160v120H360z" stroke="#000" stroke-width="2" fill="#fff"/><use xlink:href="#c" transform="matrix(1,0,0,1,365,245) translate(44.05 59.0875)"/><path d="M80 240h144v102c-24.05-17.03-39.02-17.03-48.1-17.03-14.4 0-33.55 17.03-47.95 17.03-8.93 0-24.05 0-47.95-17.03z" stroke="#000" stroke-width="2" fill="#0c7cba"/><path d="M88 249h144v102c-24.05-17.03-39.02-17.03-48.1-17.03-14.4 0-33.55 17.03-47.95 17.03-8.93 0-24.05 0-47.95-17.03z" stroke="#000" stroke-width="2" fill="#0c7cba"/><path d="M96 258h144v102c-24.05-17.03-39.02-17.03-48.1-17.03-14.4 0-33.55 17.03-47.95 17.03-8.93 0-24.05 0-47.95-17.03z" stroke="#000" stroke-width="2" fill="#0c7cba"/><use xlink:href="#d" transform="matrix(1,0,0,1,101,263) translate(3.0999999999999943 40.18125)"/><use xlink:href="#e" transform="matrix(1,0,0,1,101,263) translate(64 40.18125)"/><path d="M1080 240h160v120h-160z" stroke="#000" stroke-width="2" fill="#fff"/><use xlink:href="#f" transform="matrix(1,0,0,1,1085,245) translate(49 59.0875)"/><path d="M1080 480h160v120h-160z" stroke="#000" stroke-width="2" fill="#fff"/><use xlink:href="#g" transform="matrix(1,0,0,1,1085,485) translate(38.099999999999994 59.0875)"/><path d="M1400 480h144v102c-24.05-17.03-39.02-17.03-48.1-17.03-14.4 0-33.55 17.03-47.95 17.03-8.93 0-24.05 0-47.95-17.03z" stroke="#000" stroke-width="2" fill="#0c7cba"/><path d="M1408 489h144v102c-24.05-17.03-39.02-17.03-48.1-17.03-14.4 0-33.55 17.03-47.95 17.03-8.93 0-24.05 0-47.95-17.03z" stroke="#000" stroke-width="2" fill="#0c7cba"/><path d="M1416 498h144v102c-24.05-17.03-39.02-17.03-48.1-17.03-14.4 0-33.55 17.03-47.95 17.03-8.93 0-24.05 0-47.95-17.03z" stroke="#000" stroke-width="2" fill="#0c7cba"/><use xlink:href="#h" transform="matrix(1,0,0,1,1421,503) translate(31.049999999999997 40.18125)"/><path d="M1242 540h138.5" stroke="#000" stroke-width="2" fill="none"/><path d="M1242.03 541H1241v-2h1.03z"/><path d="M1395.76 540l-14.26 4.64v-9.28z" stroke="#000" stroke-width="2"/><path d="M1242 300h78v240h60.5" stroke="#000" stroke-width="2" fill="none"/><path d="M1242.03 301H1241v-2h1.03z"/><path d="M1395.76 540l-14.26 4.64v-9.28z" stroke="#000" stroke-width="2"/><path d="M1080-80h160V40h-160z" stroke="#000" stroke-width="2" fill="#fff"/><use xlink:href="#i" transform="matrix(1,0,0,1,1085,-75) translate(8.099999999999994 48.775)"/><use xlink:href="#j" transform="matrix(1,0,0,1,1085,-75) translate(65.5 70.375)"/><path d="M1400-80h160V40h-160z" stroke="#000" stroke-width="2" fill="#fff"/><use xlink:href="#k" transform="matrix(1,0,0,1,1405,-75) translate(24.599999999999994 59.0875)"/><path d="M1400 280h160v120h-160z" stroke="#000" stroke-width="2" fill="#fff"/><use xlink:href="#l" transform="matrix(1,0,0,1,1405,285) translate(43.175 59.0875)"/><path d="M1242-20h138.5" stroke="#000" stroke-width="2" fill="none"/><path d="M1242.03-19H1241v-2h1.03z"/><path d="M1395.76-20l-14.26 4.64v-9.28z" stroke="#000" stroke-width="2"/><path d="M1400 680h160v120h-160z" stroke="#000" stroke-width="2" fill="#fff"/><use xlink:href="#m" transform="matrix(1,0,0,1,1405,685) translate(44.625 59.0875)"/><path d="M1480 597.03v63.47" stroke="#000" stroke-width="2" fill="none"/><path d="M1481 597.06h-2v-.57l2-.93z"/><path d="M1480 675.76l-4.64-14.26h9.28z" stroke="#000" stroke-width="2"/><path d="M1040 680h144v102c-24.05-17.03-39.02-17.03-48.1-17.03-14.4 0-33.55 17.03-47.95 17.03-8.93 0-24.05 0-47.95-17.03z" stroke="#000" stroke-width="2" fill="#0c7cba"/><path d="M1048 689h144v102c-24.05-17.03-39.02-17.03-48.1-17.03-14.4 0-33.55 17.03-47.95 17.03-8.93 0-24.05 0-47.95-17.03z" stroke="#000" stroke-width="2" fill="#0c7cba"/><path d="M1056 698h144v102c-24.05-17.03-39.02-17.03-48.1-17.03-14.4 0-33.55 17.03-47.95 17.03-8.93 0-24.05 0-47.95-17.03z" stroke="#000" stroke-width="2" fill="#0c7cba"/><use xlink:href="#h" transform="matrix(1,0,0,1,1061,703) translate(31.049999999999997 40.18125)"/><path d="M620 680h160v120H620z" stroke="#000" stroke-width="2" fill="#fff"/><use xlink:href="#n" transform="matrix(1,0,0,1,625,685) translate(44.05 59.0875)"/><path d="M360 680h144v102c-24.05-17.03-39.02-17.03-48.1-17.03-14.4 0-33.55 17.03-47.95 17.03-8.93 0-24.05 0-47.95-17.03z" stroke="#000" stroke-width="2" fill="#0c7cba"/><path d="M368 689h144v102c-24.05-17.03-39.02-17.03-48.1-17.03-14.4 0-33.55 17.03-47.95 17.03-8.93 0-24.05 0-47.95-17.03z" stroke="#000" stroke-width="2" fill="#0c7cba"/><path d="M376 698h144v102c-24.05-17.03-39.02-17.03-48.1-17.03-14.4 0-33.55 17.03-47.95 17.03-8.93 0-24.05 0-47.95-17.03z" stroke="#000" stroke-width="2" fill="#0c7cba"/><use xlink:href="#o" transform="matrix(1,0,0,1,381,703) translate(22.549999999999997 30.80625)"/><use xlink:href="#e" transform="matrix(1,0,0,1,381,703) translate(33.55 52.40625)"/><path d="M1040 980h160v120h-160z" stroke="#000" stroke-width="2" fill="#fff"/><use xlink:href="#p" transform="matrix(1,0,0,1,1045,985) translate(29.074999999999996 59.0875)"/><path d="M620 980h160v120H620z" stroke="#000" stroke-width="2" fill="#fff"/><use xlink:href="#q" transform="matrix(1,0,0,1,625,985) translate(47.025 59.0875)"/><path d="M1480 42v218.5" stroke="#000" stroke-width="2" fill="none"/><path d="M1481 42.03h-2V41h2z"/><path d="M1480 275.76l-4.64-14.26h9.28z" stroke="#000" stroke-width="2"/><path d="M1480 402v58.5" stroke="#000" stroke-width="2" fill="none"/><path d="M1481 402.03h-2V401h2z"/><path d="M1480 475.76l-4.64-14.26h9.28z" stroke="#000" stroke-width="2"/><path d="M1398 740h-178.5" stroke="#000" stroke-width="2" fill="none"/><path d="M1399 741h-1.03v-2h1.03z"/><path d="M1204.24 740l14.26-4.64v9.28z" stroke="#000" stroke-width="2"/><path d="M1120 797.03V960.5" stroke="#000" stroke-width="2" fill="none"/><path d="M1121 797.06h-2v-.57l2-.93z"/><path d="M1120 975.76l-4.64-14.26h9.28z" stroke="#000" stroke-width="2"/><path d="M360 980h144v102c-24.05-17.03-39.02-17.03-48.1-17.03-14.4 0-33.55 17.03-47.95 17.03-8.93 0-24.05 0-47.95-17.03z" stroke="#000" stroke-width="2" fill="#0c7cba"/><path d="M368 989h144v102c-24.05-17.03-39.02-17.03-48.1-17.03-14.4 0-33.55 17.03-47.95 17.03-8.93 0-24.05 0-47.95-17.03z" stroke="#000" stroke-width="2" fill="#0c7cba"/><path d="M376 998h144v102c-24.05-17.03-39.02-17.03-48.1-17.03-14.4 0-33.55 17.03-47.95 17.03-8.93 0-24.05 0-47.95-17.03z" stroke="#000" stroke-width="2" fill="#0c7cba"/><use xlink:href="#r" transform="matrix(1,0,0,1,381,1003) translate(18.525 40.18125)"/><path d="M698 300.2h-88v-.2h-70.5" stroke="#000" stroke-width="2" fill="none"/><path d="M699 301.2h-1.03v-2H699z"/><path d="M524.24 300l14.26-4.64v9.28z" stroke="#000" stroke-width="2"/><path d="M358 300h-98.5" stroke="#000" stroke-width="2" fill="none"/><path d="M359 301h-1.03v-2H359z"/><path d="M244.24 300l14.26-4.64v9.28z" stroke="#000" stroke-width="2"/><path d="M40 200v-40h540v40z" stroke="#000" stroke-width="2" fill="#fff"/><path d="M580 200v200H40V200z" stroke="#000" stroke-width="2" fill="none"/><use xlink:href="#s" transform="matrix(1,0,0,1,40,160) translate(212.6 23.6)"/><use xlink:href="#t" transform="matrix(1,0,0,1,40,160) translate(273.5 23.6)"/><path d="M960 200v-40h700v40z" stroke="#000" stroke-width="2" fill="#fff"/><path d="M1660 200v620H960V200z" stroke="#000" stroke-width="2" fill="none"/><use xlink:href="#u" transform="matrix(1,0,0,1,960,160) translate(274.075 23.6)"/><use xlink:href="#v" transform="matrix(1,0,0,1,960,160) translate(348.025 23.6)"/><path d="M1038 740.2H799.5" stroke="#000" stroke-width="2" fill="none"/><path d="M1039 741.2h-1.03v-2h1.03z"/><path d="M784.24 740.2l14.26-4.64v9.27z" stroke="#000" stroke-width="2"/><path d="M618 740h-78.5" stroke="#000" stroke-width="2" fill="none"/><path d="M619 741h-1.03v-2H619z"/><path d="M524.24 740l14.26-4.64v9.28z" stroke="#000" stroke-width="2"/><path d="M960-100v-40h700v40z" stroke="#000" stroke-width="2" fill="#fff"/><path d="M1660-100V60H960v-160z" stroke="#000" stroke-width="2" fill="none"/><use xlink:href="#w" transform="matrix(1,0,0,1,960,-140) translate(292.575 23.6)"/><path d="M862 300.2h108v-.2h90.5" stroke="#000" stroke-width="2" fill="none"/><path d="M862.03 301.2H861v-2h1.03z"/><path d="M1075.76 300l-14.26 4.64v-9.28z" stroke="#000" stroke-width="2"/><path d="M780 238V-20h280.5" stroke="#000" stroke-width="2" fill="none"/><path d="M781 239h-2v-1.03h2z"/><path d="M1075.76-20l-14.26 4.64v-9.28z" stroke="#000" stroke-width="2"/><path d="M780 357.03V540h280.5" stroke="#000" stroke-width="2" fill="none"/><path d="M781 357.06h-2v-.57l2-.93z"/><path d="M1075.76 540l-14.26 4.64v-9.28z" stroke="#000" stroke-width="2"/><path d="M960 920v-40h320v40z" stroke="#000" stroke-width="2" fill="#fff"/><path d="M1280 920v260H960V920z" stroke="#000" stroke-width="2" fill="none"/><use xlink:href="#x" transform="matrix(1,0,0,1,960,880) translate(11.724999999999966 23.6)"/><use xlink:href="#y" transform="matrix(1,0,0,1,960,880) translate(80.57499999999997 23.6)"/><use xlink:href="#z" transform="matrix(1,0,0,1,960,880) translate(115.57499999999997 23.6)"/><use xlink:href="#A" transform="matrix(1,0,0,1,960,880) translate(228.375 23.6)"/><path d="M300 920v-40h560v40z" stroke="#000" stroke-width="2" fill="#fff"/><path d="M860 920v260H300V920z" stroke="#000" stroke-width="2" fill="none"/><use xlink:href="#u" transform="matrix(1,0,0,1,300,880) translate(200.05 23.6)"/><use xlink:href="#B" transform="matrix(1,0,0,1,300,880) translate(274 23.6)"/><path d="M1038 1040H799.5" stroke="#000" stroke-width="2" fill="none"/><path d="M1039 1041h-1.03v-2h1.03z"/><path d="M784.24 1040l14.26-4.64v9.28z" stroke="#000" stroke-width="2"/><path d="M618 1040h-78.5" stroke="#000" stroke-width="2" fill="none"/><path d="M619 1041h-1.03v-2H619z"/><path d="M524.24 1040l14.26-4.64v9.28z" stroke="#000" stroke-width="2"/><path d="M660 200v-40h240v40z" stroke="#000" stroke-width="2" fill="#fff"/><path d="M900 200v200H660V200z" stroke="#000" stroke-width="2" fill="none"/><g><use xlink:href="#C" transform="matrix(1,0,0,1,660,160) translate(100 23.6)"/></g><path d="M300 620v-40h560v40z" stroke="#000" stroke-width="2" fill="#fff"/><path d="M860 620v220H300V620z" stroke="#000" stroke-width="2" fill="none"/><g><use xlink:href="#D" transform="matrix(1,0,0,1,300,580) translate(211.6 23.6)"/><use xlink:href="#t" transform="matrix(1,0,0,1,300,580) translate(294.5 23.6)"/></g><path d="M1480 597.03v40.5H700v22.97" stroke="#000" stroke-width="2" fill="none"/><path d="M1481 597.06h-2v-.57l2-.93z"/><path d="M700 675.76l-4.64-14.26h9.28z" stroke="#000" stroke-width="2"/><defs><path fill="#fff" d="M63-220v92h138v28H63V0H30v-248h175v28H63" id="E"/><path fill="#fff" d="M205 0l-28-72H64L36 0H1l101-248h38L239 0h-34zm-38-99l-47-123c-12 45-31 82-46 123h93" id="F"/><path fill="#fff" d="M185-189c-5-48-123-54-124 2 14 75 158 14 163 119 3 78-121 87-175 55-17-10-28-26-33-46l33-7c5 56 141 63 141-1 0-78-155-14-162-118-5-82 145-84 179-34 5 7 8 16 11 25" id="G"/><path fill="#fff" d="M127-220V0H93v-220H8v-28h204v28h-85" id="H"/><path fill="#fff" d="M140-251c81 0 123 46 123 126C263-53 228-8 163 1c7 30 30 48 69 40v23c-55 16-95-15-103-61C56-3 17-48 17-125c0-80 42-126 123-126zm0 227c63 0 89-41 89-101s-29-99-89-99c-61 0-89 39-89 99S79-25 140-24" id="I"/><g id="a"><use transform="matrix(0.05,0,0,0.05,0,0)" xlink:href="#E"/><use transform="matrix(0.05,0,0,0.05,9.950000000000001,0)" xlink:href="#F"/><use transform="matrix(0.05,0,0,0.05,21.950000000000003,0)" xlink:href="#G"/><use transform="matrix(0.05,0,0,0.05,33.95,0)" xlink:href="#H"/><use transform="matrix(0.05,0,0,0.05,44.900000000000006,0)" xlink:href="#I"/></g><path fill="#fff" d="M135-143c-3-34-86-38-87 0 15 53 115 12 119 90S17 21 10-45l28-5c4 36 97 45 98 0-10-56-113-15-118-90-4-57 82-63 122-42 12 7 21 19 24 35" id="J"/><path fill="#fff" d="M141-36C126-15 110 5 73 4 37 3 15-17 15-53c-1-64 63-63 125-63 3-35-9-54-41-54-24 1-41 7-42 31l-33-3c5-37 33-52 76-52 45 0 72 20 72 64v82c-1 20 7 32 28 27v20c-31 9-61-2-59-35zM48-53c0 20 12 33 32 33 41-3 63-29 60-74-43 2-92-5-92 41" id="K"/><path fill="#fff" d="M210-169c-67 3-38 105-44 169h-31v-121c0-29-5-50-35-48C34-165 62-65 56 0H25l-1-190h30c1 10-1 24 2 32 10-44 99-50 107 0 11-21 27-35 58-36 85-2 47 119 55 194h-31v-121c0-29-5-49-35-48" id="L"/><path fill="#fff" d="M115-194c55 1 70 41 70 98S169 2 115 4C84 4 66-9 55-30l1 105H24l-1-265h31l2 30c10-21 28-34 59-34zm-8 174c40 0 45-34 45-75s-6-73-45-74c-42 0-51 32-51 76 0 43 10 73 51 73" id="M"/><path fill="#fff" d="M24 0v-261h32V0H24" id="N"/><path fill="#fff" d="M100-194c63 0 86 42 84 106H49c0 40 14 67 53 68 26 1 43-12 49-29l28 8c-11 28-37 45-77 45C44 4 14-33 15-96c1-61 26-98 85-98zm52 81c6-60-76-77-97-28-3 7-6 17-6 28h103" id="O"/><g id="b"><use transform="matrix(0.05,0,0,0.05,0,0)" xlink:href="#J"/><use transform="matrix(0.05,0,0,0.05,9,0)" xlink:href="#K"/><use transform="matrix(0.05,0,0,0.05,19,0)" xlink:href="#L"/><use transform="matrix(0.05,0,0,0.05,33.95,0)" xlink:href="#M"/><use transform="matrix(0.05,0,0,0.05,43.95,0)" xlink:href="#N"/><use transform="matrix(0.05,0,0,0.05,47.900000000000006,0)" xlink:href="#O"/><use transform="matrix(0.05,0,0,0.05,57.900000000000006,0)" xlink:href="#J"/></g><path d="M63-220v92h138v28H63V0H30v-248h175v28H63" id="P"/><path d="M141-36C126-15 110 5 73 4 37 3 15-17 15-53c-1-64 63-63 125-63 3-35-9-54-41-54-24 1-41 7-42 31l-33-3c5-37 33-52 76-52 45 0 72 20 72 64v82c-1 20 7 32 28 27v20c-31 9-61-2-59-35zM48-53c0 20 12 33 32 33 41-3 63-29 60-74-43 2-92-5-92 41" id="Q"/><path d="M135-143c-3-34-86-38-87 0 15 53 115 12 119 90S17 21 10-45l28-5c4 36 97 45 98 0-10-56-113-15-118-90-4-57 82-63 122-42 12 7 21 19 24 35" id="R"/><path d="M59-47c-2 24 18 29 38 22v24C64 9 27 4 27-40v-127H5v-23h24l9-43h21v43h35v23H59v120" id="S"/><path d="M140-251c81 0 123 46 123 126C263-53 228-8 163 1c7 30 30 48 69 40v23c-55 16-95-15-103-61C56-3 17-48 17-125c0-80 42-126 123-126zm0 227c63 0 89-41 89-101s-29-99-89-99c-61 0-89 39-89 99S79-25 140-24" id="T"/><path d="M212-179c-10-28-35-45-73-45-59 0-87 40-87 99 0 60 29 101 89 101 43 0 62-24 78-52l27 14C228-24 195 4 139 4 59 4 22-46 18-125c-6-104 99-153 187-111 19 9 31 26 39 46" id="U"/><g id="c"><use transform="matrix(0.05,0,0,0.05,0,0)" xlink:href="#P"/><use transform="matrix(0.05,0,0,0.05,10.950000000000001,0)" xlink:href="#Q"/><use transform="matrix(0.05,0,0,0.05,20.950000000000003,0)" xlink:href="#R"/><use transform="matrix(0.05,0,0,0.05,29.950000000000003,0)" xlink:href="#S"/><use transform="matrix(0.05,0,0,0.05,34.95,0)" xlink:href="#T"/><use transform="matrix(0.05,0,0,0.05,48.95,0)" xlink:href="#U"/></g><path fill="#fff" d="M84 4C-5 8 30-112 23-190h32v120c0 31 7 50 39 49 72-2 45-101 50-169h31l1 190h-30c-1-10 1-25-2-33-11 22-28 36-60 37" id="V"/><path fill="#fff" d="M24-231v-30h32v30H24zM24 0v-190h32V0H24" id="W"/><path fill="#fff" d="M59-47c-2 24 18 29 38 22v24C64 9 27 4 27-40v-127H5v-23h24l9-43h21v43h35v23H59v120" id="X"/><path fill="#fff" d="M179-190L93 31C79 59 56 82 12 73V49c39 6 53-20 64-50L1-190h34L92-34l54-156h33" id="Y"/><g id="d"><use transform="matrix(0.05,0,0,0.05,0,0)" xlink:href="#I"/><use transform="matrix(0.05,0,0,0.05,14,0)" xlink:href="#V"/><use transform="matrix(0.05,0,0,0.05,24,0)" xlink:href="#K"/><use transform="matrix(0.05,0,0,0.05,34,0)" xlink:href="#N"/><use transform="matrix(0.05,0,0,0.05,37.95,0)" xlink:href="#W"/><use transform="matrix(0.05,0,0,0.05,41.900000000000006,0)" xlink:href="#X"/><use transform="matrix(0.05,0,0,0.05,46.900000000000006,0)" xlink:href="#Y"/></g><path fill="#fff" d="M114-163C36-179 61-72 57 0H25l-1-190h30c1 12-1 29 2 39 6-27 23-49 58-41v29" id="Z"/><path fill="#fff" d="M100-194c62-1 85 37 85 99 1 63-27 99-86 99S16-35 15-95c0-66 28-99 85-99zM99-20c44 1 53-31 53-75 0-43-8-75-51-75s-53 32-53 75 10 74 51 75" id="aa"/><g id="e"><use transform="matrix(0.05,0,0,0.05,0,0)" xlink:href="#Z"/><use transform="matrix(0.05,0,0,0.05,5.95,0)" xlink:href="#O"/><use transform="matrix(0.05,0,0,0.05,15.949999999999998,0)" xlink:href="#M"/><use transform="matrix(0.05,0,0,0.05,25.950000000000003,0)" xlink:href="#aa"/><use transform="matrix(0.05,0,0,0.05,35.95,0)" xlink:href="#Z"/><use transform="matrix(0.05,0,0,0.05,41.900000000000006,0)" xlink:href="#X"/><use transform="matrix(0.05,0,0,0.05,46.900000000000006,0)" xlink:href="#J"/></g><path d="M30 0v-248h187v28H63v79h144v27H63v87h162V0H30" id="ab"/><path d="M85-194c31 0 48 13 60 33l-1-100h32l1 261h-30c-2-10 0-23-3-31C134-8 116 4 85 4 32 4 16-35 15-94c0-66 23-100 70-100zm9 24c-40 0-46 34-46 75 0 40 6 74 45 74 42 0 51-32 51-76 0-42-9-74-50-73" id="ac"/><path d="M100-194c63 0 86 42 84 106H49c0 40 14 67 53 68 26 1 43-12 49-29l28 8c-11 28-37 45-77 45C44 4 14-33 15-96c1-61 26-98 85-98zm52 81c6-60-76-77-97-28-3 7-6 17-6 28h103" id="ad"/><path d="M117-194c89-4 53 116 60 194h-32v-121c0-31-8-49-39-48C34-167 62-67 57 0H25l-1-190h30c1 10-1 24 2 32 11-22 29-35 61-36" id="ae"/><g id="f"><use transform="matrix(0.05,0,0,0.05,0,0)" xlink:href="#ab"/><use transform="matrix(0.05,0,0,0.05,12,0)" xlink:href="#ac"/><use transform="matrix(0.05,0,0,0.05,22,0)" xlink:href="#ad"/><use transform="matrix(0.05,0,0,0.05,32,0)" xlink:href="#ae"/><use transform="matrix(0.05,0,0,0.05,42,0)" xlink:href="#Q"/></g><path d="M232-93c-1 65-40 97-104 97C67 4 28-28 28-90v-158h33c8 89-33 224 67 224 102 0 64-133 71-224h33v155" id="af"/><path d="M24-231v-30h32v30H24zM24 0v-190h32V0H24" id="ag"/><path d="M96-169c-40 0-48 33-48 73s9 75 48 75c24 0 41-14 43-38l32 2c-6 37-31 61-74 61-59 0-76-41-82-99-10-93 101-131 147-64 4 7 5 14 7 22l-32 3c-4-21-16-35-41-35" id="ah"/><path d="M179-190L93 31C79 59 56 82 12 73V49c39 6 53-20 64-50L1-190h34L92-34l54-156h33" id="ai"/><path d="M24 0v-261h32V0H24" id="aj"/><path d="M114-163C36-179 61-72 57 0H25l-1-190h30c1 12-1 29 2 39 6-27 23-49 58-41v29" id="ak"/><g id="g"><use transform="matrix(0.05,0,0,0.05,0,0)" xlink:href="#af"/><use transform="matrix(0.05,0,0,0.05,12.950000000000001,0)" xlink:href="#ae"/><use transform="matrix(0.05,0,0,0.05,22.950000000000003,0)" xlink:href="#ag"/><use transform="matrix(0.05,0,0,0.05,26.900000000000002,0)" xlink:href="#ah"/><use transform="matrix(0.05,0,0,0.05,35.900000000000006,0)" xlink:href="#ai"/><use transform="matrix(0.05,0,0,0.05,44.900000000000006,0)" xlink:href="#ah"/><use transform="matrix(0.05,0,0,0.05,53.900000000000006,0)" xlink:href="#aj"/><use transform="matrix(0.05,0,0,0.05,57.85,0)" xlink:href="#ad"/><use transform="matrix(0.05,0,0,0.05,67.85000000000001,0)" xlink:href="#ak"/></g><path fill="#fff" d="M212-179c-10-28-35-45-73-45-59 0-87 40-87 99 0 60 29 101 89 101 43 0 62-24 78-52l27 14C228-24 195 4 139 4 59 4 22-46 18-125c-6-104 99-153 187-111 19 9 31 26 39 46" id="al"/><path fill="#fff" d="M117-194c89-4 53 116 60 194h-32v-121c0-31-8-49-39-48C34-167 62-67 57 0H25l-1-190h30c1 10-1 24 2 32 11-22 29-35 61-36" id="am"/><path fill="#fff" d="M177-190C167-65 218 103 67 71c-23-6-38-20-44-43l32-5c15 47 100 32 89-28v-30C133-14 115 1 83 1 29 1 15-40 15-95c0-56 16-97 71-98 29-1 48 16 59 35 1-10 0-23 2-32h30zM94-22c36 0 50-32 50-73 0-42-14-75-50-75-39 0-46 34-46 75s6 73 46 73" id="an"/><g id="h"><use transform="matrix(0.05,0,0,0.05,0,0)" xlink:href="#al"/><use transform="matrix(0.05,0,0,0.05,12.950000000000001,0)" xlink:href="#aa"/><use transform="matrix(0.05,0,0,0.05,22.950000000000003,0)" xlink:href="#am"/><use transform="matrix(0.05,0,0,0.05,32.95,0)" xlink:href="#X"/><use transform="matrix(0.05,0,0,0.05,37.95,0)" xlink:href="#W"/><use transform="matrix(0.05,0,0,0.05,41.900000000000006,0)" xlink:href="#an"/><use transform="matrix(0.05,0,0,0.05,51.900000000000006,0)" xlink:href="#J"/></g><path d="M205 0l-28-72H64L36 0H1l101-248h38L239 0h-34zm-38-99l-47-123c-12 45-31 82-46 123h93" id="ao"/><path d="M115-194c55 1 70 41 70 98S169 2 115 4C84 4 66-9 55-30l1 105H24l-1-265h31l2 30c10-21 28-34 59-34zm-8 174c40 0 45-34 45-75s-6-73-45-74c-42 0-51 32-51 76 0 43 10 73 51 73" id="ap"/><path d="M233-177c-1 41-23 64-60 70L243 0h-38l-65-103H63V0H30v-248c88 3 205-21 203 71zM63-129c60-2 137 13 137-47 0-61-80-42-137-45v92" id="aq"/><path d="M210-169c-67 3-38 105-44 169h-31v-121c0-29-5-50-35-48C34-165 62-65 56 0H25l-1-190h30c1 10-1 24 2 32 10-44 99-50 107 0 11-21 27-35 58-36 85-2 47 119 55 194h-31v-121c0-29-5-49-35-48" id="ar"/><path d="M100-194c62-1 85 37 85 99 1 63-27 99-86 99S16-35 15-95c0-66 28-99 85-99zM99-20c44 1 53-31 53-75 0-43-8-75-51-75s-53 32-53 75 10 74 51 75" id="as"/><path d="M108 0H70L1-190h34L89-25l56-165h34" id="at"/><g id="i"><use transform="matrix(0.05,0,0,0.05,0,0)" xlink:href="#ao"/><use transform="matrix(0.05,0,0,0.05,12,0)" xlink:href="#ac"/><use transform="matrix(0.05,0,0,0.05,22,0)" xlink:href="#Q"/><use transform="matrix(0.05,0,0,0.05,32,0)" xlink:href="#ap"/><use transform="matrix(0.05,0,0,0.05,42,0)" xlink:href="#S"/><use transform="matrix(0.05,0,0,0.05,47,0)" xlink:href="#ad"/><use transform="matrix(0.05,0,0,0.05,57,0)" xlink:href="#ak"/><use transform="matrix(0.05,0,0,0.05,62.95,0)" xlink:href="#aq"/><use transform="matrix(0.05,0,0,0.05,75.9,0)" xlink:href="#ad"/><use transform="matrix(0.05,0,0,0.05,85.9,0)" xlink:href="#ar"/><use transform="matrix(0.05,0,0,0.05,100.85000000000001,0)" xlink:href="#as"/><use transform="matrix(0.05,0,0,0.05,110.85000000000001,0)" xlink:href="#at"/><use transform="matrix(0.05,0,0,0.05,119.85000000000001,0)" xlink:href="#Q"/><use transform="matrix(0.05,0,0,0.05,129.85000000000002,0)" xlink:href="#aj"/></g><path d="M101-251c82-7 93 87 43 132L82-64C71-53 59-42 53-27h129V0H18c2-99 128-94 128-182 0-28-16-43-45-43s-46 15-49 41l-32-3c6-41 34-60 81-64" id="au"/><g id="j"><use transform="matrix(0.05,0,0,0.05,0,0)" xlink:href="#at"/><use transform="matrix(0.05,0,0,0.05,9,0)" xlink:href="#au"/></g><path d="M194 0L95-120 63-95V0H30v-248h33v124l119-124h40L117-140 236 0h-42" id="av"/><path d="M185-189c-5-48-123-54-124 2 14 75 158 14 163 119 3 78-121 87-175 55-17-10-28-26-33-46l33-7c5 56 141 63 141-1 0-78-155-14-162-118-5-82 145-84 179-34 5 7 8 16 11 25" id="aw"/><g id="k"><use transform="matrix(0.05,0,0,0.05,0,0)" xlink:href="#av"/><use transform="matrix(0.05,0,0,0.05,12,0)" xlink:href="#ar"/><use transform="matrix(0.05,0,0,0.05,26.950000000000003,0)" xlink:href="#ad"/><use transform="matrix(0.05,0,0,0.05,36.95,0)" xlink:href="#ak"/><use transform="matrix(0.05,0,0,0.05,42.900000000000006,0)" xlink:href="#aw"/><use transform="matrix(0.05,0,0,0.05,54.900000000000006,0)" xlink:href="#S"/><use transform="matrix(0.05,0,0,0.05,59.900000000000006,0)" xlink:href="#ak"/><use transform="matrix(0.05,0,0,0.05,65.85000000000001,0)" xlink:href="#ad"/><use transform="matrix(0.05,0,0,0.05,75.85000000000001,0)" xlink:href="#Q"/><use transform="matrix(0.05,0,0,0.05,85.85000000000001,0)" xlink:href="#ar"/></g><path d="M30-248c87 1 191-15 191 75 0 78-77 80-158 76V0H30v-248zm33 125c57 0 124 11 124-50 0-59-68-47-124-48v98" id="ax"/><g id="l"><use transform="matrix(0.05,0,0,0.05,0,0)" xlink:href="#aw"/><use transform="matrix(0.05,0,0,0.05,12,0)" xlink:href="#ax"/><use transform="matrix(0.05,0,0,0.05,22.65,0)" xlink:href="#ao"/><use transform="matrix(0.05,0,0,0.05,34.65,0)" xlink:href="#ac"/><use transform="matrix(0.05,0,0,0.05,44.65,0)" xlink:href="#ad"/><use transform="matrix(0.05,0,0,0.05,54.650000000000006,0)" xlink:href="#R"/></g><path d="M30-248c118-7 216 8 213 122C240-48 200 0 122 0H30v-248zM63-27c89 8 146-16 146-99s-60-101-146-95v194" id="ay"/><path d="M16-82v-28h88v28H16" id="az"/><path d="M197 0v-115H63V0H30v-248h33v105h134v-105h34V0h-34" id="aA"/><path d="M33 0v-248h34V0H33" id="aB"/><path d="M127-220V0H93v-220H8v-28h204v28h-85" id="aC"/><g id="m"><use transform="matrix(0.05,0,0,0.05,0,0)" xlink:href="#U"/><use transform="matrix(0.05,0,0,0.05,12.950000000000001,0)" xlink:href="#ay"/><use transform="matrix(0.05,0,0,0.05,25.900000000000002,0)" xlink:href="#az"/><use transform="matrix(0.05,0,0,0.05,31.85,0)" xlink:href="#aA"/><use transform="matrix(0.05,0,0,0.05,44.800000000000004,0)" xlink:href="#aB"/><use transform="matrix(0.05,0,0,0.05,49.800000000000004,0)" xlink:href="#aC"/></g><g id="n"><use transform="matrix(0.05,0,0,0.05,0,0)" xlink:href="#T"/><use transform="matrix(0.05,0,0,0.05,14,0)" xlink:href="#af"/><use transform="matrix(0.05,0,0,0.05,26.950000000000003,0)" xlink:href="#ao"/><use transform="matrix(0.05,0,0,0.05,38.95,0)" xlink:href="#aw"/><use transform="matrix(0.05,0,0,0.05,50.95,0)" xlink:href="#aC"/></g><path fill="#fff" d="M115-194c53 0 69 39 70 98 0 66-23 100-70 100C84 3 66-7 56-30L54 0H23l1-261h32v101c10-23 28-34 59-34zm-8 174c40 0 45-34 45-75 0-40-5-75-45-74-42 0-51 32-51 76 0 43 10 73 51 73" id="aD"/><g id="o"><use transform="matrix(0.05,0,0,0.05,0,0)" xlink:href="#F"/><use transform="matrix(0.05,0,0,0.05,12,0)" xlink:href="#J"/><use transform="matrix(0.05,0,0,0.05,21,0)" xlink:href="#J"/><use transform="matrix(0.05,0,0,0.05,30,0)" xlink:href="#O"/><use transform="matrix(0.05,0,0,0.05,40,0)" xlink:href="#L"/><use transform="matrix(0.05,0,0,0.05,54.95,0)" xlink:href="#aD"/><use transform="matrix(0.05,0,0,0.05,64.95,0)" xlink:href="#N"/><use transform="matrix(0.05,0,0,0.05,68.9,0)" xlink:href="#Y"/></g><path d="M240 0l2-218c-23 76-54 145-80 218h-23L58-218 59 0H30v-248h44l77 211c21-75 51-140 76-211h43V0h-30" id="aE"/><path d="M140-251c81 0 123 46 123 126C263-46 219 4 140 4 59 4 17-45 17-125s42-126 123-126zm0 227c63 0 89-41 89-101s-29-99-89-99c-61 0-89 39-89 99S79-25 140-24" id="aF"/><path d="M160-131c35 5 61 23 61 61C221 17 115-2 30 0v-248c76 3 177-17 177 60 0 33-19 50-47 57zm-97-11c50-1 110 9 110-42 0-47-63-36-110-37v79zm0 115c55-2 124 14 124-45 0-56-70-42-124-44v89" id="aG"/><g id="p"><use transform="matrix(0.05,0,0,0.05,0,0)" xlink:href="#aE"/><use transform="matrix(0.05,0,0,0.05,14.950000000000001,0)" xlink:href="#aF"/><use transform="matrix(0.05,0,0,0.05,28.950000000000003,0)" xlink:href="#aG"/><use transform="matrix(0.05,0,0,0.05,40.95,0)" xlink:href="#az"/><use transform="matrix(0.05,0,0,0.05,46.900000000000006,0)" xlink:href="#ak"/><use transform="matrix(0.05,0,0,0.05,52.85,0)" xlink:href="#ad"/><use transform="matrix(0.05,0,0,0.05,62.85,0)" xlink:href="#ah"/><use transform="matrix(0.05,0,0,0.05,71.85000000000001,0)" xlink:href="#as"/><use transform="matrix(0.05,0,0,0.05,81.85000000000001,0)" xlink:href="#ae"/></g><path d="M143 0L79-87 56-68V0H24v-261h32v163l83-92h37l-77 82L181 0h-38" id="aH"/><g id="q"><use transform="matrix(0.05,0,0,0.05,0,0)" xlink:href="#ax"/><use transform="matrix(0.05,0,0,0.05,12,0)" xlink:href="#ak"/><use transform="matrix(0.05,0,0,0.05,17.95,0)" xlink:href="#as"/><use transform="matrix(0.05,0,0,0.05,27.950000000000003,0)" xlink:href="#aH"/><use transform="matrix(0.05,0,0,0.05,36.95,0)" xlink:href="#aH"/><use transform="matrix(0.05,0,0,0.05,45.95,0)" xlink:href="#Q"/></g><g id="r"><use transform="matrix(0.05,0,0,0.05,0,0)" xlink:href="#F"/><use transform="matrix(0.05,0,0,0.05,12,0)" xlink:href="#am"/><use transform="matrix(0.05,0,0,0.05,22,0)" xlink:href="#am"/><use transform="matrix(0.05,0,0,0.05,32,0)" xlink:href="#aa"/><use transform="matrix(0.05,0,0,0.05,42,0)" xlink:href="#X"/><use transform="matrix(0.05,0,0,0.05,47,0)" xlink:href="#K"/><use transform="matrix(0.05,0,0,0.05,57,0)" xlink:href="#X"/><use transform="matrix(0.05,0,0,0.05,62,0)" xlink:href="#W"/><use transform="matrix(0.05,0,0,0.05,65.95,0)" xlink:href="#aa"/><use transform="matrix(0.05,0,0,0.05,75.95,0)" xlink:href="#am"/></g><path d="M84 4C-5 8 30-112 23-190h32v120c0 31 7 50 39 49 72-2 45-101 50-169h31l1 190h-30c-1-10 1-25-2-33-11 22-28 36-60 37" id="aI"/><g id="s"><use transform="matrix(0.05,0,0,0.05,0,0)" xlink:href="#T"/><use transform="matrix(0.05,0,0,0.05,14,0)" xlink:href="#aI"/><use transform="matrix(0.05,0,0,0.05,24,0)" xlink:href="#Q"/><use transform="matrix(0.05,0,0,0.05,34,0)" xlink:href="#aj"/><use transform="matrix(0.05,0,0,0.05,37.95,0)" xlink:href="#ag"/><use transform="matrix(0.05,0,0,0.05,41.900000000000006,0)" xlink:href="#S"/><use transform="matrix(0.05,0,0,0.05,46.900000000000006,0)" xlink:href="#ai"/></g><g id="t"><use transform="matrix(0.05,0,0,0.05,0,0)" xlink:href="#aq"/><use transform="matrix(0.05,0,0,0.05,12.950000000000001,0)" xlink:href="#ad"/><use transform="matrix(0.05,0,0,0.05,22.950000000000003,0)" xlink:href="#ap"/><use transform="matrix(0.05,0,0,0.05,32.95,0)" xlink:href="#as"/><use transform="matrix(0.05,0,0,0.05,42.95,0)" xlink:href="#ak"/><use transform="matrix(0.05,0,0,0.05,48.900000000000006,0)" xlink:href="#S"/></g><path d="M143 4C61 4 22-44 18-125c-5-107 100-154 193-111 17 8 29 25 37 43l-32 9c-13-25-37-40-76-40-61 0-88 39-88 99 0 61 29 100 91 101 35 0 62-11 79-27v-45h-74v-28h105v86C228-13 192 4 143 4" id="aJ"/><g id="u"><use transform="matrix(0.05,0,0,0.05,0,0)" xlink:href="#aJ"/><use transform="matrix(0.05,0,0,0.05,14,0)" xlink:href="#ad"/><use transform="matrix(0.05,0,0,0.05,24,0)" xlink:href="#ae"/><use transform="matrix(0.05,0,0,0.05,34,0)" xlink:href="#as"/><use transform="matrix(0.05,0,0,0.05,44,0)" xlink:href="#ar"/><use transform="matrix(0.05,0,0,0.05,58.95,0)" xlink:href="#ad"/></g><path d="M115-194c53 0 69 39 70 98 0 66-23 100-70 100C84 3 66-7 56-30L54 0H23l1-261h32v101c10-23 28-34 59-34zm-8 174c40 0 45-34 45-75 0-40-5-75-45-74-42 0-51 32-51 76 0 43 10 73 51 73" id="aK"/><g id="v"><use transform="matrix(0.05,0,0,0.05,0,0)" xlink:href="#ao"/><use transform="matrix(0.05,0,0,0.05,12,0)" xlink:href="#R"/><use transform="matrix(0.05,0,0,0.05,21,0)" xlink:href="#R"/><use transform="matrix(0.05,0,0,0.05,30,0)" xlink:href="#ad"/><use transform="matrix(0.05,0,0,0.05,40,0)" xlink:href="#ar"/><use transform="matrix(0.05,0,0,0.05,54.95,0)" xlink:href="#aK"/><use transform="matrix(0.05,0,0,0.05,64.95,0)" xlink:href="#aj"/><use transform="matrix(0.05,0,0,0.05,68.9,0)" xlink:href="#ai"/></g><path d="M177-190C167-65 218 103 67 71c-23-6-38-20-44-43l32-5c15 47 100 32 89-28v-30C133-14 115 1 83 1 29 1 15-40 15-95c0-56 16-97 71-98 29-1 48 16 59 35 1-10 0-23 2-32h30zM94-22c36 0 50-32 50-73 0-42-14-75-50-75-39 0-46 34-46 75s6 73 46 73" id="aL"/><g id="w"><use transform="matrix(0.05,0,0,0.05,0,0)" xlink:href="#ax"/><use transform="matrix(0.05,0,0,0.05,12,0)" xlink:href="#ak"/><use transform="matrix(0.05,0,0,0.05,17.95,0)" xlink:href="#ad"/><use transform="matrix(0.05,0,0,0.05,27.950000000000003,0)" xlink:href="#ap"/><use transform="matrix(0.05,0,0,0.05,37.95,0)" xlink:href="#ak"/><use transform="matrix(0.05,0,0,0.05,43.900000000000006,0)" xlink:href="#as"/><use transform="matrix(0.05,0,0,0.05,53.900000000000006,0)" xlink:href="#ah"/><use transform="matrix(0.05,0,0,0.05,62.900000000000006,0)" xlink:href="#ad"/><use transform="matrix(0.05,0,0,0.05,72.9,0)" xlink:href="#R"/><use transform="matrix(0.05,0,0,0.05,81.9,0)" xlink:href="#R"/><use transform="matrix(0.05,0,0,0.05,90.9,0)" xlink:href="#ag"/><use transform="matrix(0.05,0,0,0.05,94.85000000000001,0)" xlink:href="#ae"/><use transform="matrix(0.05,0,0,0.05,104.85000000000001,0)" xlink:href="#aL"/></g><g id="x"><use transform="matrix(0.05,0,0,0.05,0,0)" xlink:href="#ax"/><use transform="matrix(0.05,0,0,0.05,12,0)" xlink:href="#aj"/><use transform="matrix(0.05,0,0,0.05,15.949999999999998,0)" xlink:href="#Q"/><use transform="matrix(0.05,0,0,0.05,25.950000000000003,0)" xlink:href="#R"/><use transform="matrix(0.05,0,0,0.05,34.95,0)" xlink:href="#ar"/><use transform="matrix(0.05,0,0,0.05,49.900000000000006,0)" xlink:href="#ag"/><use transform="matrix(0.05,0,0,0.05,53.85,0)" xlink:href="#ac"/></g><g id="y"><use transform="matrix(0.05,0,0,0.05,0,0)" xlink:href="#Q"/><use transform="matrix(0.05,0,0,0.05,10,0)" xlink:href="#ae"/><use transform="matrix(0.05,0,0,0.05,20,0)" xlink:href="#ac"/></g><path d="M106-169C34-169 62-67 57 0H25v-261h32l-1 103c12-21 28-36 61-36 89 0 53 116 60 194h-32v-121c2-32-8-49-39-48" id="aM"/><g id="z"><use transform="matrix(0.05,0,0,0.05,0,0)" xlink:href="#U"/><use transform="matrix(0.05,0,0,0.05,12.950000000000001,0)" xlink:href="#aM"/><use transform="matrix(0.05,0,0,0.05,22.950000000000003,0)" xlink:href="#ak"/><use transform="matrix(0.05,0,0,0.05,28.900000000000002,0)" xlink:href="#as"/><use transform="matrix(0.05,0,0,0.05,38.900000000000006,0)" xlink:href="#ar"/><use transform="matrix(0.05,0,0,0.05,53.85,0)" xlink:href="#as"/><use transform="matrix(0.05,0,0,0.05,63.85,0)" xlink:href="#R"/><use transform="matrix(0.05,0,0,0.05,72.85000000000001,0)" xlink:href="#as"/><use transform="matrix(0.05,0,0,0.05,82.85000000000001,0)" xlink:href="#ar"/><use transform="matrix(0.05,0,0,0.05,97.80000000000001,0)" xlink:href="#ad"/></g><path d="M141 0L90-78 38 0H4l68-98-65-92h35l48 74 47-74h35l-64 92 68 98h-35" id="aN"/><g id="A"><use transform="matrix(0.05,0,0,0.05,0,0)" xlink:href="#ab"/><use transform="matrix(0.05,0,0,0.05,12,0)" xlink:href="#aN"/><use transform="matrix(0.05,0,0,0.05,21,0)" xlink:href="#S"/><use transform="matrix(0.05,0,0,0.05,26,0)" xlink:href="#ak"/><use transform="matrix(0.05,0,0,0.05,31.950000000000003,0)" xlink:href="#Q"/><use transform="matrix(0.05,0,0,0.05,41.95,0)" xlink:href="#ah"/><use transform="matrix(0.05,0,0,0.05,50.95,0)" xlink:href="#S"/><use transform="matrix(0.05,0,0,0.05,55.95,0)" xlink:href="#ag"/><use transform="matrix(0.05,0,0,0.05,59.900000000000006,0)" xlink:href="#as"/><use transform="matrix(0.05,0,0,0.05,69.9,0)" xlink:href="#ae"/></g><g id="B"><use transform="matrix(0.05,0,0,0.05,0,0)" xlink:href="#ao"/><use transform="matrix(0.05,0,0,0.05,12,0)" xlink:href="#ae"/><use transform="matrix(0.05,0,0,0.05,22,0)" xlink:href="#ae"/><use transform="matrix(0.05,0,0,0.05,32,0)" xlink:href="#as"/><use transform="matrix(0.05,0,0,0.05,42,0)" xlink:href="#S"/><use transform="matrix(0.05,0,0,0.05,47,0)" xlink:href="#Q"/><use transform="matrix(0.05,0,0,0.05,57,0)" xlink:href="#S"/><use transform="matrix(0.05,0,0,0.05,62,0)" xlink:href="#ag"/><use transform="matrix(0.05,0,0,0.05,65.95,0)" xlink:href="#as"/><use transform="matrix(0.05,0,0,0.05,75.95,0)" xlink:href="#ae"/></g><g id="C"><use transform="matrix(0.05,0,0,0.05,0,0)" xlink:href="#aB"/><use transform="matrix(0.05,0,0,0.05,5,0)" xlink:href="#ae"/><use transform="matrix(0.05,0,0,0.05,15,0)" xlink:href="#ap"/><use transform="matrix(0.05,0,0,0.05,25,0)" xlink:href="#aI"/><use transform="matrix(0.05,0,0,0.05,35,0)" xlink:href="#S"/></g><g id="D"><use transform="matrix(0.05,0,0,0.05,0,0)" xlink:href="#ao"/><use transform="matrix(0.05,0,0,0.05,12,0)" xlink:href="#R"/><use transform="matrix(0.05,0,0,0.05,21,0)" xlink:href="#R"/><use transform="matrix(0.05,0,0,0.05,30,0)" xlink:href="#ad"/><use transform="matrix(0.05,0,0,0.05,40,0)" xlink:href="#ar"/><use transform="matrix(0.05,0,0,0.05,54.95,0)" xlink:href="#aK"/><use transform="matrix(0.05,0,0,0.05,64.95,0)" xlink:href="#aj"/><use transform="matrix(0.05,0,0,0.05,68.9,0)" xlink:href="#ai"/></g></defs></g></svg>